# xmcd CD database file
#
# Track frame offsets:
#	150
#	15167
#	29357
#	42313
#	52825
#	63194
#	76970
#	93425
#	103792
#	119222
#	130504
#	143170
#	155585
#	168121
#
# Disc length: 2432 seconds
#
# Revision: 0
# Processed by: cddbd v1.5.2PL0 Copyright (c) Steve Scherf et al.
# Submitted via: CDex 1.50Beta7
#
DISCID=aa097e0e
DTITLE=Edson and Hudson - Na Moda Do Brasil [Live]
DYEAR=2007
DGENRE=Country
TTITLE0=Viva A Vida!
TTITLE1=As Andorinhas
TTITLE2=Bicho Bom É Mulher
TTITLE3=Do Mundo Nada Se Leva
TTITLE4=O Doutor E A Empregada
TTITLE5=Viola Está Chorando
TTITLE6=Vá Pro Inferno Com Seu Amor - Galopeira
TTITLE7=Quebradas Da Noite
TTITLE8=Blusa Vermelha
TTITLE9=Estrada Da Vida
TTITLE10=Ainda Ontem Chorei De Saudade
TTITLE11=Saudade De Minha Terra
TTITLE12=Bobeou... A Gente Pimba
TTITLE13=Hoje Eu Não Posso Ir
EXTD=YEAR: 2007
EXTT0=
EXTT1=
EXTT2=
EXTT3=
EXTT4=
EXTT5=
EXTT6=
EXTT7=
EXTT8=
EXTT9=
EXTT10=
EXTT11=
EXTT12=
EXTT13=
PLAYORDER=
